<?xml version="1.0" encoding="UTF-8"?>
<svg width="200" height="200" viewBox="0 0 200 200" version="1.1" xmlns="http://www.w3.org/2000/svg">
    <g>
        <path fill="#4CAF50" d="M100 20c-44.183 0-80 35.817-80 80s35.817 80 80 80 80-35.817 80-80-35.817-80-80-80zm0 150c-38.598 0-70-31.402-70-70s31.402-70 70-70 70 31.402 70 70-31.402 70-70 70z"/>
        <path fill="#4CAF50" d="M120 80c0-11.046-8.954-20-20-20s-20 8.954-20 20c0 7.838 4.477 14.644 11 17.938V140h18V97.938c6.523-3.294 11-10.1 11-17.938z"/>
    </g>
</svg> 